<svg width="77" height="77" viewBox="0 0 77 77" fill="none" xmlns="http://www.w3.org/2000/svg">
<circle cx="38.5" cy="38.5" r="38" stroke="black"/>
<path d="M43.3023 50C43.6381 49.9999 43.9663 49.8985 44.2455 49.7085C44.5247 49.5185 44.7423 49.2485 44.8708 48.9325C44.9993 48.6166 45.0329 48.269 44.9674 47.9337C44.9019 47.5983 44.7402 47.2902 44.5028 47.0484L36.0972 38.4894L44.5028 29.9303C44.8121 29.6042 44.9833 29.1674 44.9794 28.7141C44.9756 28.2607 44.797 27.827 44.4821 27.5064C44.1673 27.1859 43.7414 27.004 43.2961 27.0001C42.8509 26.9961 42.422 27.1704 42.1017 27.4854L32.4972 37.2669C32.1788 37.5912 32 38.0309 32 38.4894C32 38.9479 32.1788 39.3876 32.4972 39.7118L42.1 49.4934C42.2575 49.6542 42.4446 49.7817 42.6506 49.8687C42.8567 49.9556 43.0775 50.0002 43.3006 50H43.3023Z" fill="black"/>
</svg>
