<svg width="21" height="21" viewBox="0 0 21 21" fill="none" xmlns="http://www.w3.org/2000/svg">
<path d="M12.7378 0.60356C12.8528 0.289762 13.3214 0.401038 13.283 0.73305L12.9611 3.51826C12.5455 7.11473 14.6483 10.5275 18.0476 11.7732L20.6802 12.738C20.994 12.853 20.8828 13.3216 20.5507 13.2832L17.7655 12.9613C14.1691 12.5457 10.7563 14.6485 9.51055 18.0478L8.54581 20.6804C8.43077 20.9942 7.96221 20.883 8.00056 20.5509L8.32246 17.7657C8.73812 14.1693 6.63524 10.7565 3.23591 9.51075L0.603359 8.54601C0.28956 8.43098 0.400837 7.96242 0.732849 8.00075L3.51806 8.32266C7.11453 8.73832 10.5273 6.63544 11.773 3.23611L12.7378 0.60356Z" fill="black"/>
</svg>
