<svg width="119" height="100" viewBox="0 0 119 100" fill="none" xmlns="http://www.w3.org/2000/svg">
<path d="M50.1758 77.1678L56.5868 76.9941" stroke="#569DAA" stroke-miterlimit="10" stroke-linejoin="round"/>
<path d="M64.2578 75.3835L66.9342 61.2803" stroke="#569DAA" stroke-miterlimit="10" stroke-linejoin="round"/>
<path d="M72.8452 52.7578L69.998 46.4714" stroke="#569DAA" stroke-miterlimit="10" stroke-linejoin="round"/>
<path d="M69.9614 65.0043L67.5645 61.7091" stroke="#569DAA" stroke-miterlimit="10" stroke-linejoin="round"/>
<path d="M69.4839 72.2246L66.875 61.6157" stroke="#569DAA" stroke-miterlimit="10" stroke-linejoin="round"/>
<path d="M69.7133 39.9203L66.1094 38.948" stroke="#569DAA" stroke-miterlimit="10" stroke-linejoin="round"/>
<path d="M68.2737 45.5439L60.8965 44.8265L64.1578 39.2291" stroke="#569DAA" stroke-miterlimit="10" stroke-linejoin="round"/>
<path d="M55.5391 76.9285C55.5391 76.0736 56.3242 75.3806 57.2928 75.3806C58.2615 75.3806 59.047 76.0736 59.047 76.9285C59.047 77.7833 58.2615 78.4763 57.2928 78.4763C56.3242 78.4763 55.5391 77.7833 55.5391 76.9285Z" fill="#569DAA"/>
<path d="M69.2834 46.405L67.109 60.0395L57.4023 77.2617" stroke="#569DAA" stroke-miterlimit="10" stroke-linejoin="round"/>
<path d="M59.5762 44.7544C59.5762 43.8036 60.4105 43.0322 61.4399 43.0322C62.4693 43.0322 63.3036 43.8036 63.3036 44.7544C63.3036 45.7057 62.4693 46.4767 61.4399 46.4767C60.4105 46.4767 59.5762 45.7057 59.5762 44.7544Z" fill="#569DAA"/>
<path d="M62.7598 38.3322C62.7598 37.3214 63.6289 36.5024 64.701 36.5024C65.7732 36.5024 66.6427 37.3214 66.6427 38.3322C66.6427 39.3429 65.7732 40.1623 64.701 40.1623C63.6289 40.1623 62.7598 39.3429 62.7598 38.3322Z" fill="#569DAA"/>
<path d="M70.3516 40.4759L74.019 35.252" stroke="#569DAA" stroke-miterlimit="10" stroke-linejoin="round"/>
<path d="M87.7363 75.0991L90.611 79.0275" stroke="#569DAA" stroke-miterlimit="10" stroke-linejoin="round"/>
<path d="M74.3789 79.0984L79.1649 72.5885" stroke="#569DAA" stroke-miterlimit="10" stroke-linejoin="round"/>
<path d="M79.9941 73.0692L87.0748 74.0038" stroke="#569DAA" stroke-miterlimit="10" stroke-linejoin="round"/>
<path d="M87.1309 74.2635L89.7721 66.3701" stroke="#569DAA" stroke-miterlimit="10" stroke-linejoin="round"/>
<path d="M54.4434 69.4659L64.9456 61.2556" stroke="#569DAA" stroke-miterlimit="10" stroke-linejoin="round"/>
<path d="M60.041 54.4975L68.0207 47.166" stroke="#569DAA" stroke-miterlimit="10" stroke-linejoin="round"/>
<path d="M46.4277 77.0622C46.4277 76.1896 47.2692 75.4822 48.307 75.4822C49.3452 75.4822 50.1867 76.1896 50.1867 77.0622C50.1867 77.9347 49.3452 78.6422 48.307 78.6422C47.2692 78.6422 46.4277 77.9347 46.4277 77.0622Z" fill="#569DAA" stroke="#569DAA" stroke-miterlimit="10" stroke-linejoin="round"/>
<path d="M54.4006 69.5801L48.6016 76.7604" stroke="#569DAA" stroke-miterlimit="10" stroke-linejoin="round"/>
<path d="M71.043 64.9675L75.5715 60.6084L73.5587 53.5175" stroke="#569DAA" stroke-miterlimit="10" stroke-linejoin="round"/>
<path d="M71.4766 72.5749L78.7263 72.644L82.7571 63.7761L79.4607 57.8662L73.744 53.0046" stroke="#569DAA" stroke-miterlimit="10" stroke-linejoin="round"/>
<path d="M65.2754 75.1302L69.6212 71.8029L70.2836 65.9509L73.1807 52.9463L74.3397 44.3408L70.5731 40.057" stroke="#569DAA" stroke-miterlimit="10" stroke-linejoin="round"/>
<path d="M77.875 72.8309C77.875 71.9913 78.6561 71.3108 79.6192 71.3108C80.5826 71.3108 81.3633 71.9913 81.3633 72.8309C81.3633 73.6706 80.5826 74.3511 79.6192 74.3511C78.6561 74.3511 77.875 73.6706 77.875 72.8309Z" fill="#569DAA" stroke="#569DAA" stroke-miterlimit="10" stroke-linejoin="round"/>
<path d="M80.373 63.1237C80.373 62.365 81.0742 61.7499 81.9389 61.7499C82.8036 61.7499 83.5048 62.365 83.5048 63.1237C83.5048 63.8822 82.8036 64.4972 81.9389 64.4972C81.0742 64.4972 80.373 63.8822 80.373 63.1237Z" fill="#569DAA" stroke="#569DAA" stroke-miterlimit="10" stroke-linejoin="round"/>
<path d="M68.3047 71.9159C68.3047 71.0685 69.1102 70.3813 70.1036 70.3813C71.0974 70.3813 71.9026 71.0685 71.9026 71.9159C71.9026 72.7633 71.0974 73.4505 70.1036 73.4505C69.1102 73.4505 68.3047 72.7633 68.3047 71.9159Z" fill="#569DAA" stroke="#569DAA" stroke-miterlimit="10" stroke-linejoin="round"/>
<path d="M55.0352 40.7825L57.8783 36.5571" stroke="#569DAA" stroke-miterlimit="10" stroke-linejoin="round"/>
<path d="M55.906 60.8835L54.4297 68.2069" stroke="#569DAA" stroke-miterlimit="10" stroke-linejoin="round"/>
<path d="M54.6719 59.4713C54.6719 58.7805 55.2951 58.2205 56.0643 58.2205C56.8334 58.2205 57.4566 58.7805 57.4566 59.4713C57.4566 60.1617 56.8334 60.7218 56.0643 60.7218C55.2951 60.7218 54.6719 60.1617 54.6719 59.4713Z" fill="#569DAA" stroke="#569DAA" stroke-miterlimit="10" stroke-linejoin="round"/>
<path d="M53.5254 54.9962L57.3535 54.7343" stroke="#569DAA" stroke-miterlimit="10" stroke-linejoin="round"/>
<path d="M57.1172 54.865C57.1172 53.8521 58.0167 53.0309 59.126 53.0309C60.2354 53.0309 61.1348 53.8521 61.1348 54.865C61.1348 55.8783 60.2354 56.6996 59.126 56.6996C58.0167 56.6996 57.1172 55.8783 57.1172 54.865Z" fill="#569DAA" stroke="#569DAA" stroke-miterlimit="10" stroke-linejoin="round"/>
<path d="M48.4219 51.284L53.6848 42.6725" stroke="#569DAA" stroke-miterlimit="10" stroke-linejoin="round"/>
<path d="M52.0176 33.9083L57.2889 35.0524" stroke="#569DAA" stroke-miterlimit="10" stroke-linejoin="round"/>
<path d="M51.5566 32.652L54.7092 29.0959" stroke="#569DAA" stroke-miterlimit="10" stroke-linejoin="round"/>
<path d="M49.5488 33.6741C49.5488 33.0191 50.1976 32.4879 50.9984 32.4879C51.7991 32.4879 52.4479 33.0191 52.4479 33.6741C52.4479 34.3291 51.7991 34.8599 50.9984 34.8599C50.1976 34.8599 49.5488 34.3291 49.5488 33.6741Z" fill="#569DAA" stroke="#569DAA" stroke-miterlimit="10" stroke-linejoin="round"/>
<path d="M51.4502 36.7925L50.6895 34.6842" stroke="#569DAA" stroke-miterlimit="10" stroke-linejoin="round"/>
<path d="M46.3242 43.3296C46.3242 42.5893 47.0494 41.989 47.9437 41.989C48.8379 41.989 49.5631 42.5893 49.5631 43.3296C49.5631 44.0696 48.8379 44.6699 47.9437 44.6699C47.0494 44.6699 46.3242 44.0696 46.3242 43.3296Z" fill="#569DAA" stroke="#569DAA" stroke-miterlimit="10" stroke-linejoin="round"/>
<path d="M37.3926 73.2007L41.2253 65.1998" stroke="#569DAA" stroke-miterlimit="10" stroke-linejoin="round"/>
<path d="M33.9961 74.9465C33.9961 73.7888 35.0665 72.8505 36.387 72.8505C37.7074 72.8505 38.7778 73.7888 38.7778 74.9465C38.7778 76.1043 37.7074 77.0426 36.387 77.0426C35.0665 77.0426 33.9961 76.1043 33.9961 74.9465Z" fill="#569DAA" stroke="#569DAA" stroke-miterlimit="10" stroke-linejoin="round"/>
<path d="M46.5957 58.5762L47.6087 53.1158" stroke="#569DAA" stroke-miterlimit="10" stroke-linejoin="round"/>
<path d="M44.2324 60.0191C44.2324 59.0498 45.1203 58.264 46.2161 58.264C47.3114 58.264 48.1997 59.0498 48.1997 60.0191C48.1997 60.9885 47.3114 61.7742 46.2161 61.7742C45.1203 61.7742 44.2324 60.9885 44.2324 60.0191Z" fill="#569DAA" stroke="#569DAA" stroke-miterlimit="10" stroke-linejoin="round"/>
<path d="M42.7969 63.2563L45.8355 59.98" stroke="#569DAA" stroke-miterlimit="10" stroke-linejoin="round"/>
<path d="M41.4688 51.7582L46.7564 52.261" stroke="#569DAA" stroke-miterlimit="10" stroke-linejoin="round"/>
<path d="M26.7852 71.3462L39.6129 65.8707" stroke="#569DAA" stroke-miterlimit="10" stroke-linejoin="round"/>
<path d="M47.5371 51.3678L47.791 42.9735L51.4444 38.6709" stroke="#569DAA" stroke-miterlimit="10" stroke-linejoin="round"/>
<path d="M50.8516 37.7669C50.8516 37.0547 51.4784 36.4769 52.2519 36.4769C53.0251 36.4769 53.6519 37.0547 53.6519 37.7669C53.6519 38.4795 53.0251 39.0569 52.2519 39.0569C51.4784 39.0569 50.8516 38.4795 50.8516 37.7669Z" fill="#569DAA" stroke="#569DAA" stroke-miterlimit="10" stroke-linejoin="round"/>
<path d="M54.4551 28.3509C54.4551 27.9763 54.8353 27.673 55.3038 27.673C55.7723 27.673 56.1521 27.9763 56.1521 28.3509C56.1521 28.7251 55.7723 29.0284 55.3038 29.0284C54.8353 29.0284 54.4551 28.7251 54.4551 28.3509Z" fill="#569DAA" stroke="#569DAA" stroke-miterlimit="10" stroke-linejoin="round"/>
<path d="M56.5801 35.788C56.5801 35.1651 57.2213 34.6602 58.0128 34.6602C58.804 34.6602 59.4456 35.1651 59.4456 35.788C59.4456 36.4112 58.804 36.9158 58.0128 36.9158C57.2213 36.9158 56.5801 36.4112 56.5801 35.788Z" fill="#569DAA" stroke="#569DAA" stroke-miterlimit="10" stroke-linejoin="round"/>
<path d="M53.5039 37.7986L57.7846 36.1315" stroke="#569DAA" stroke-miterlimit="10" stroke-linejoin="round"/>
<path d="M52.4609 41.8897C52.4609 41.0105 53.3312 40.2982 54.405 40.2982C55.4784 40.2982 56.3486 41.0105 56.3486 41.8897C56.3486 42.7685 55.4784 43.4807 54.405 43.4807C53.3312 43.4807 52.4609 42.7685 52.4609 41.8897Z" fill="#569DAA" stroke="#569DAA" stroke-miterlimit="10" stroke-linejoin="round"/>
<path d="M54.9903 43.0725L52.3906 53.5111" stroke="#569DAA" stroke-miterlimit="10" stroke-linejoin="round"/>
<path d="M51.1152 54.6685C51.1152 54.0778 51.6865 53.5986 52.3913 53.5986C53.0961 53.5986 53.6673 54.0778 53.6673 54.6685C53.6673 55.2595 53.0961 55.7387 52.3913 55.7387C51.6865 55.7387 51.1152 55.2595 51.1152 54.6685Z" fill="#569DAA" stroke="#569DAA" stroke-miterlimit="10" stroke-linejoin="round"/>
<path d="M53.0156 55.7169L55.2931 58.6977" stroke="#569DAA" stroke-miterlimit="10" stroke-linejoin="round"/>
<path d="M52.4121 69.5258C52.4121 68.7721 53.1505 68.1615 54.0611 68.1615C54.9718 68.1615 55.7102 68.7721 55.7102 69.5258C55.7102 70.2794 54.9718 70.8904 54.0611 70.8904C53.1505 70.8904 52.4121 70.2794 52.4121 69.5258Z" fill="#569DAA" stroke="#569DAA" stroke-miterlimit="10" stroke-linejoin="round"/>
<path d="M77.3281 56.7749C77.3281 55.9275 78.1956 55.2404 79.2654 55.2404C80.3356 55.2404 81.203 55.9275 81.203 56.7749C81.203 57.6224 80.3356 58.3095 79.2654 58.3095C78.1956 58.3095 77.3281 57.6224 77.3281 56.7749Z" fill="#569DAA" stroke="#569DAA" stroke-miterlimit="10" stroke-linejoin="round"/>
<path d="M72.1504 52.7258C72.1504 52.2001 72.6113 51.7742 73.1802 51.7742C73.7491 51.7742 74.21 52.2001 74.21 52.7258C74.21 53.2511 73.7491 53.6774 73.1802 53.6774C72.6113 53.6774 72.1504 53.2511 72.1504 52.7258Z" fill="#569DAA" stroke="#569DAA" stroke-miterlimit="10" stroke-linejoin="round"/>
<path d="M73.2422 44.4408C73.2422 43.9565 73.6579 43.5638 74.1708 43.5638C74.6837 43.5638 75.0999 43.9565 75.0999 44.4408C75.0999 44.9251 74.6837 45.3178 74.1708 45.3178C73.6579 45.3178 73.2422 44.9251 73.2422 44.4408Z" fill="#569DAA" stroke="#569DAA" stroke-miterlimit="10" stroke-linejoin="round"/>
<path d="M85.1152 74.4083C85.1152 73.5528 85.884 72.8594 86.8318 72.8594C87.7797 72.8594 88.548 73.5528 88.548 74.4083C88.548 75.2635 87.7797 75.9569 86.8318 75.9569C85.884 75.9569 85.1152 75.2635 85.1152 74.4083Z" fill="#569DAA" stroke="#569DAA" stroke-miterlimit="10" stroke-linejoin="round"/>
<path d="M88.75 65.806C88.75 65.27 89.2653 64.8356 89.9009 64.8356C90.5369 64.8356 91.0522 65.27 91.0522 65.806C91.0522 66.3421 90.5369 66.7765 89.9009 66.7765C89.2653 66.7765 88.75 66.3421 88.75 65.806Z" fill="#569DAA" stroke="#569DAA" stroke-miterlimit="10" stroke-linejoin="round"/>
<path d="M69.4863 65.1902C69.4863 64.7676 69.8929 64.4252 70.395 64.4252C70.8967 64.4252 71.3037 64.7676 71.3037 65.1902C71.3037 65.6128 70.8967 65.9553 70.395 65.9553C69.8929 65.9553 69.4863 65.6128 69.4863 65.1902Z" fill="#569DAA" stroke="#569DAA" stroke-miterlimit="10" stroke-linejoin="round"/>
<path d="M62.459 76.1061C62.459 75.4053 63.1098 74.8372 63.9129 74.8372C64.7157 74.8372 65.3665 75.4053 65.3665 76.1061C65.3665 76.8069 64.7157 77.3751 63.9129 77.3751C63.1098 77.3751 62.459 76.8069 62.459 76.1061Z" fill="#569DAA" stroke="#569DAA" stroke-miterlimit="10" stroke-linejoin="round"/>
<path d="M69.0527 40.3964C69.0527 39.7883 69.6228 39.2959 70.326 39.2959C71.0288 39.2959 71.5988 39.7883 71.5988 40.3964C71.5988 41.0041 71.0288 41.4969 70.326 41.4969C69.6228 41.4969 69.0527 41.0041 69.0527 40.3964Z" fill="#569DAA" stroke="#569DAA" stroke-miterlimit="10" stroke-linejoin="round"/>
<path d="M74.3164 60.4784C74.3164 59.8422 74.9161 59.3262 75.6556 59.3262C76.3952 59.3262 76.9948 59.8422 76.9948 60.4784C76.9948 61.1149 76.3952 61.6306 75.6556 61.6306C74.9161 61.6306 74.3164 61.1149 74.3164 60.4784Z" fill="#569DAA" stroke="#569DAA" stroke-miterlimit="10" stroke-linejoin="round"/>
<path d="M65.0977 76.6676L69.1869 79.33" stroke="#569DAA" stroke-miterlimit="10" stroke-linejoin="round"/>
<path d="M56.0645 27.8111L58.8672 22.6086" stroke="#569DAA" stroke-miterlimit="10" stroke-linejoin="round"/>
<path d="M67.4199 45.9747C67.4199 44.9839 68.237 44.1804 69.2448 44.1804C70.2527 44.1804 71.0698 44.9839 71.0698 45.9747C71.0698 46.9655 70.2527 47.7686 69.2448 47.7686C68.237 47.7686 67.4199 46.9655 67.4199 45.9747Z" fill="#569DAA"/>
<path d="M59.2324 27.8514C59.2324 27.0257 60.0096 26.3563 60.9682 26.3563C61.9272 26.3563 62.7044 27.0257 62.7044 27.8514C62.7044 28.677 61.9272 29.3464 60.9682 29.3464C60.0096 29.3464 59.2324 28.677 59.2324 27.8514Z" fill="#569DAA"/>
<path d="M64.2363 60.721C64.2363 59.4728 65.3489 58.4606 66.7213 58.4606C68.0937 58.4606 69.2062 59.4728 69.2062 60.721C69.2062 61.9693 68.0937 62.9815 66.7213 62.9815C65.3489 62.9815 64.2363 61.9693 64.2363 60.721Z" fill="#569DAA"/>
<path d="M63.3613 30.5208C63.3613 29.6686 64.1437 28.9778 65.1087 28.9778C66.0737 28.9778 66.8557 29.6686 66.8557 30.5208C66.8557 31.3727 66.0737 32.0635 65.1087 32.0635C64.1437 32.0635 63.3613 31.3727 63.3613 30.5208Z" fill="#569DAA"/>
<path d="M61.4434 28.4772L65.5358 29.9375L64.3488 37.2198" stroke="#569DAA" stroke-miterlimit="10" stroke-linejoin="round"/>
<path d="M79.8887 55.7628L82.4867 50.2551" stroke="#569DAA" stroke-miterlimit="10" stroke-linejoin="round"/>
<path d="M88.7522 56.6101L79.4297 56.8923" stroke="#569DAA" stroke-miterlimit="10" stroke-linejoin="round"/>
<path d="M22.0957 78.804L27.4095 69.3513L31.66 64.4913L32.4916 60.1658L35.1901 55.3043C35.1901 55.3043 36.7378 49.2037 39.2233 45.2923C41.7088 41.3813 44.478 38.4503 44.478 38.4503L47.4375 33.6014L51.3402 27.5201L56.1002 22.3071L58.8202 20.2219L62.2202 23.0022L65.2802 26.13L67.1359 28.2925L71.7696 31.693L75.722 38.116L77.6301 43.4057L81.6506 48.8842L86.2846 52.4106L90.0324 58.8968L93.3717 63.5567L95.552 69.413L100.98 77.9125H95.552L89.4202 78.6076L82.2802 77.9125L76.3797 79.1239L65.522 79.4438L56.5945 79.4213L43.6229 79.8542L35.923 78.2565L30.1712 77.8734L22.0957 78.804Z" stroke="#569DAA" stroke-miterlimit="10" stroke-linejoin="round"/>
<path d="M87.6836 74.6868L100.063 76.3817" stroke="#569DAA" stroke-miterlimit="10" stroke-linejoin="round"/>
<path d="M43.331 65.7927L53.567 69.089L38.2129 73.6753" stroke="#569DAA" stroke-miterlimit="10" stroke-linejoin="round"/>
<path d="M23 78L40 66" stroke="#569DAA" stroke-miterlimit="10" stroke-linejoin="round"/>
<path d="M39.0742 64.6487C39.0742 63.529 40.1218 62.621 41.4143 62.621C42.7067 62.621 43.7545 63.529 43.7545 64.6487C43.7545 65.7688 42.7067 66.6768 41.4143 66.6768C40.1218 66.6768 39.0742 65.7688 39.0742 64.6487Z" fill="#569DAA" stroke="#569DAA" stroke-miterlimit="10" stroke-linejoin="round"/>
<path d="M34 57.5L40.1244 63.2885" stroke="#569DAA" stroke-miterlimit="10" stroke-linejoin="round"/>
<path d="M38.7285 51.5728C38.7285 50.8336 39.4614 50.2347 40.3653 50.2347C41.2695 50.2347 42.0023 50.8336 42.0023 51.5728C42.0023 52.3116 41.2695 52.9108 40.3653 52.9108C39.4614 52.9108 38.7285 52.3116 38.7285 51.5728Z" fill="#569DAA" stroke="#569DAA" stroke-miterlimit="10" stroke-linejoin="round"/>
<path d="M46.5352 52.2418C46.5352 51.5189 47.1836 50.9326 47.9831 50.9326C48.783 50.9326 49.4315 51.5189 49.4315 52.2418C49.4315 52.9648 48.783 53.5507 47.9831 53.5507C47.1836 53.5507 46.5352 52.9648 46.5352 52.2418Z" fill="#569DAA" stroke="#569DAA" stroke-miterlimit="10" stroke-linejoin="round"/>
<path d="M40.3645 62.6845L40.1758 53.0272" stroke="#569DAA" stroke-miterlimit="10" stroke-linejoin="round"/>
<path d="M37.3926 73.2007L41.2253 65.1998" stroke="#569DAA" stroke-miterlimit="10" stroke-linejoin="round"/>
<path d="M33.998 74.9465C33.998 73.7888 35.0685 72.8505 36.3889 72.8505C37.7093 72.8505 38.7798 73.7888 38.7798 74.9465C38.7798 76.1043 37.7093 77.0426 36.3889 77.0426C35.0685 77.0426 33.998 76.1043 33.998 74.9465Z" fill="#569DAA" stroke="#569DAA" stroke-miterlimit="10" stroke-linejoin="round"/>
<path d="M46.5977 58.5762L47.6107 53.1158" stroke="#569DAA" stroke-miterlimit="10" stroke-linejoin="round"/>
<path d="M44.2324 60.0191C44.2324 59.0498 45.1203 58.264 46.2161 58.264C47.3114 58.264 48.1997 59.0498 48.1997 60.0191C48.1997 60.9885 47.3114 61.7742 46.2161 61.7742C45.1203 61.7742 44.2324 60.9885 44.2324 60.0191Z" fill="#569DAA" stroke="#569DAA" stroke-miterlimit="10" stroke-linejoin="round"/>
<path d="M42.7988 63.2563L45.8374 59.98" stroke="#569DAA" stroke-miterlimit="10" stroke-linejoin="round"/>
<path d="M41.4688 51.7582L46.7564 52.261" stroke="#569DAA" stroke-miterlimit="10" stroke-linejoin="round"/>
<path d="M26 72L39.6138 65.8706" stroke="#569DAA" stroke-miterlimit="10" stroke-linejoin="round"/>
<path d="M82.5918 63.3978L89.8467 65.9808" stroke="#569DAA" stroke-miterlimit="10" stroke-linejoin="round"/>
<path d="M57.1816 22.3085C57.1816 21.5951 57.8738 21.0167 58.7273 21.0167C59.5807 21.0167 60.2725 21.5951 60.2725 22.3085C60.2725 23.0219 59.5807 23.6001 58.7273 23.6001C57.8738 23.6001 57.1816 23.0219 57.1816 22.3085Z" fill="#569DAA"/>
<path d="M60.5174 26.9863L59.3477 21.5898" stroke="#569DAA" stroke-miterlimit="10" stroke-linejoin="round"/>
</svg>
