<svg width="77" height="77" viewBox="0 0 77 77" fill="none" xmlns="http://www.w3.org/2000/svg">
<circle cx="38.5" cy="38.5" r="38" stroke="black"/>
<path d="M33.6977 50C33.3619 49.9999 33.0337 49.8985 32.7545 49.7085C32.4753 49.5185 32.2577 49.2485 32.1292 48.9325C32.0007 48.6166 31.9671 48.269 32.0326 47.9337C32.0981 47.5983 32.2598 47.2902 32.4972 47.0484L40.9028 38.4894L32.4972 29.9303C32.1879 29.6042 32.0167 29.1674 32.0206 28.7141C32.0244 28.2607 32.203 27.827 32.5179 27.5064C32.8327 27.1859 33.2586 27.004 33.7039 27.0001C34.1491 26.9961 34.578 27.1704 34.8983 27.4854L44.5028 37.2669C44.8212 37.5912 45 38.0309 45 38.4894C45 38.9479 44.8212 39.3876 44.5028 39.7118L34.9 49.4934C34.7425 49.6542 34.5554 49.7817 34.3494 49.8687C34.1433 49.9556 33.9225 50.0002 33.6994 50H33.6977Z" fill="black"/>
</svg>
